<svg width="200" height="200" viewBox="0 0 200 200" fill="none" xmlns="http://www.w3.org/2000/svg">
<path d="M91.1626 196.341C93.6001 198.778 96.8001 200.003 100 200.003C103.2 200.003 106.4 198.778 108.838 196.341L196.134 109.044C197.111 108.111 197.937 107.021 198.571 105.814C200.488 102.172 200.481 97.789 198.55 94.1523C197.919 92.9621 197.101 91.8859 196.135 90.963L108.838 3.66563C103.95 -1.22188 96.0501 -1.22188 91.1626 3.66563C86.2751 8.55312 86.2751 16.4531 91.1626 21.3406L157.325 87.5031H12.5C5.6 87.5031 0 93.1031 0 100.003C0 106.903 5.6 112.503 12.5 112.503H157.325L91.1626 178.666C86.2751 183.553 86.2751 191.453 91.1626 196.341Z" fill="#0D0D0D"/>
</svg>
